<svg height="240" viewBox="0 0 240 240" width="240" xmlns="http://www.w3.org/2000/svg"><g fill="none"><path d="m240 232.527743c0 4.13673-3.355452 7.47224-7.477378 7.47224h-225.04524362c-4.12192612.008709-7.47737838-3.33551-7.47737838-7.47224v-225.04679426c0-4.12802061 3.35545226-7.48094874 7.47737838-7.48094874h225.03672662c4.130443 0 7.485895 3.35292813 7.485895 7.48094874z" fill="#bb2026"/><g fill="#fff" transform="translate(54.246575 61.643836)"><path d="m28.4411904.30892773c8.7236655 0 15.6787907 2.68682097 20.8653755 8.06896552 4.8039679 5.13556915 7.2102031 11.69107225 7.2102031 19.65800665v16.877657c0 7.6608408-2.7378365 14.2163439-8.2050071 19.6580066-5.4671705 5.4416628-12.0906944 8.1539915-19.8705715 8.1539915h-10.3306566v43.771375h-17.91497405v-116.18800227zm10.7217761 27.99905527c0-3.0269249-.9352858-5.4671705-2.7973548-7.3207369s-4.3448276-2.7803495-7.4397732-2.7803495h-10.8153047v37.1903637h10.8068021c2.8398677 0 5.2631081-.9863014 7.2527161-2.9674067 1.9896079-1.9811054 2.9844119-4.3618328 2.9844119-7.1421824v-16.9796882z"/><path d="m70.8266415 116.49693v-116.28153085h26.8341993c7.0826642 0 13.4596122 1.81955598 19.1478512 5.46717052 4.863486 3.09494568 8.341048 7.88190833 10.432687 14.37789323 1.139348 3.4605574 1.709023 7.5758149 1.709023 12.3287671 0 7.7883798-2.12565 14.0377894-6.359944 18.7312235-1.76854 1.9811053-3.860179 3.4945678-6.257912 4.5488899 3.979216 1.4794521 7.36325 4.421351 10.143599 8.8086916 1.828059 2.9674067 3.188475 6.8020784 4.072745 11.5040151.442135 2.4062352.663203 5.1015588.663203 8.0604629 0 7.3632499-1.419934 13.6041568-4.268305 18.731223-2.210675 4.021729-5.339631 7.235711-9.386868 9.641947-4.54889 2.720831-9.072272 4.081247-13.561644 4.081247zm19.3434105-68.8030235h7.4907888c5.5606992 0 9.2933392-2.6528106 11.1894192-7.975437.697213-1.9811053 1.045819-4.4213509 1.045819-7.3292395 0-4.820973-1.198866-8.4685876-3.605101-10.9428436-2.210676-2.2871989-5.093056-3.4350496-8.6301372-3.4350496h-7.4907888zm0 51.4662258h7.4907888c6.0623522 0 10.2711382-3.0609353 12.6093532-9.1828059.824752-2.1001417 1.232876-4.5148795 1.232876-7.2357109 0-6.4959849-1.266887-11.2149268-3.792158-14.1908361-2.278697-2.7208314-5.62872-4.0727444-10.0500712-4.0727444h-7.4907888z"/></g></g></svg>
